<mxfile host="app.diagrams.net" modified="2024-04-29T11:27:07.789Z" agent="Mozilla/5.0 (Windows NT 10.0; Win64; x64) AppleWebKit/537.36 (KHTML, like Gecko) Chrome/124.0.0.0 Safari/537.36" etag="v3FmLt2A5FkDpc3tfREb" version="24.0.7" type="device">
  <diagram name="Страница — 1" id="XSUm9hnaPyqpcyByxgyH">
    <mxGraphModel dx="1393" dy="385" grid="1" gridSize="10" guides="1" tooltips="1" connect="1" arrows="1" fold="1" page="1" pageScale="1" pageWidth="827" pageHeight="1169" math="0" shadow="0">
      <root>
        <mxCell id="0" />
        <mxCell id="1" parent="0" />
        <mxCell id="XyXh-LPCTBvs2xRVVJFw-1" value="" style="rounded=0;whiteSpace=wrap;html=1;" vertex="1" parent="1">
          <mxGeometry x="70" y="50" width="710" height="550" as="geometry" />
        </mxCell>
        <mxCell id="XyXh-LPCTBvs2xRVVJFw-2" value="&lt;font face=&quot;Times New Roman&quot;&gt;Гость&lt;/font&gt;" style="shape=umlActor;verticalLabelPosition=bottom;verticalAlign=top;html=1;outlineConnect=0;" vertex="1" parent="1">
          <mxGeometry x="-10" y="160" width="30" height="60" as="geometry" />
        </mxCell>
        <mxCell id="XyXh-LPCTBvs2xRVVJFw-7" value="&lt;font face=&quot;Times New Roman&quot;&gt;просматривать вакансии&lt;/font&gt;" style="ellipse;whiteSpace=wrap;html=1;" vertex="1" parent="1">
          <mxGeometry x="90" y="70" width="90" height="50" as="geometry" />
        </mxCell>
        <mxCell id="XyXh-LPCTBvs2xRVVJFw-8" value="&lt;font face=&quot;Times New Roman&quot;&gt;просматривать компании&lt;/font&gt;" style="ellipse;whiteSpace=wrap;html=1;" vertex="1" parent="1">
          <mxGeometry x="90" y="130" width="90" height="50" as="geometry" />
        </mxCell>
        <mxCell id="XyXh-LPCTBvs2xRVVJFw-9" value="&lt;font face=&quot;Times New Roman&quot;&gt;просматривать отзывы о компаниях&lt;/font&gt;" style="ellipse;whiteSpace=wrap;html=1;" vertex="1" parent="1">
          <mxGeometry x="90" y="190" width="100" height="50" as="geometry" />
        </mxCell>
        <mxCell id="XyXh-LPCTBvs2xRVVJFw-10" value="&lt;font face=&quot;Times New Roman&quot;&gt;жаловаться на отзывы о компаниях&lt;/font&gt;" style="ellipse;whiteSpace=wrap;html=1;" vertex="1" parent="1">
          <mxGeometry x="90" y="260" width="100" height="60" as="geometry" />
        </mxCell>
        <mxCell id="XyXh-LPCTBvs2xRVVJFw-11" value="&lt;font face=&quot;Times New Roman&quot;&gt;Работодатель&lt;/font&gt;" style="shape=umlActor;verticalLabelPosition=bottom;verticalAlign=top;html=1;outlineConnect=0;" vertex="1" parent="1">
          <mxGeometry x="-10" y="400" width="30" height="60" as="geometry" />
        </mxCell>
        <mxCell id="XyXh-LPCTBvs2xRVVJFw-12" value="&lt;font face=&quot;Times New Roman&quot;&gt;изменять список своих вакансий&lt;/font&gt;" style="ellipse;whiteSpace=wrap;html=1;" vertex="1" parent="1">
          <mxGeometry x="80" y="350" width="100" height="50" as="geometry" />
        </mxCell>
        <mxCell id="XyXh-LPCTBvs2xRVVJFw-13" value="&lt;font face=&quot;Times New Roman&quot;&gt;создавать вакансии&lt;/font&gt;" style="ellipse;whiteSpace=wrap;html=1;" vertex="1" parent="1">
          <mxGeometry x="200" y="250" width="60" height="50" as="geometry" />
        </mxCell>
        <mxCell id="XyXh-LPCTBvs2xRVVJFw-14" value="&lt;font face=&quot;Times New Roman&quot;&gt;изменять вакансии&lt;/font&gt;" style="ellipse;whiteSpace=wrap;html=1;" vertex="1" parent="1">
          <mxGeometry x="200" y="320" width="60" height="40" as="geometry" />
        </mxCell>
        <mxCell id="XyXh-LPCTBvs2xRVVJFw-15" value="&lt;font face=&quot;Times New Roman&quot;&gt;удалять вакансии&lt;/font&gt;" style="ellipse;whiteSpace=wrap;html=1;" vertex="1" parent="1">
          <mxGeometry x="200" y="390" width="60" height="40" as="geometry" />
        </mxCell>
        <mxCell id="XyXh-LPCTBvs2xRVVJFw-16" value="&lt;font face=&quot;Times New Roman&quot;&gt;просматривать список откликов&lt;/font&gt;" style="ellipse;whiteSpace=wrap;html=1;" vertex="1" parent="1">
          <mxGeometry x="85" y="440" width="95" height="60" as="geometry" />
        </mxCell>
        <mxCell id="XyXh-LPCTBvs2xRVVJFw-17" value="&lt;font face=&quot;Times New Roman&quot;&gt;принимать отклики&lt;/font&gt;" style="ellipse;whiteSpace=wrap;html=1;" vertex="1" parent="1">
          <mxGeometry x="200" y="460" width="70" height="30" as="geometry" />
        </mxCell>
        <mxCell id="XyXh-LPCTBvs2xRVVJFw-18" value="&lt;font face=&quot;Times New Roman&quot;&gt;отклонять отклики&lt;/font&gt;" style="ellipse;whiteSpace=wrap;html=1;" vertex="1" parent="1">
          <mxGeometry x="240" y="500" width="60" height="35" as="geometry" />
        </mxCell>
        <mxCell id="XyXh-LPCTBvs2xRVVJFw-19" value="&lt;font face=&quot;Times New Roman&quot;&gt;оставлять отзывы о тех кандидатах, чей отклик работодатель принял&lt;/font&gt;" style="ellipse;whiteSpace=wrap;html=1;" vertex="1" parent="1">
          <mxGeometry x="85" y="510" width="145" height="80" as="geometry" />
        </mxCell>
        <mxCell id="XyXh-LPCTBvs2xRVVJFw-20" value="&lt;font face=&quot;Times New Roman&quot;&gt;Соискатель&lt;/font&gt;" style="shape=umlActor;verticalLabelPosition=bottom;verticalAlign=top;html=1;outlineConnect=0;" vertex="1" parent="1">
          <mxGeometry x="430" y="620" width="30" height="60" as="geometry" />
        </mxCell>
        <mxCell id="XyXh-LPCTBvs2xRVVJFw-21" value="&lt;font face=&quot;Times New Roman&quot;&gt;изменять список своих резюме&lt;/font&gt;" style="ellipse;whiteSpace=wrap;html=1;" vertex="1" parent="1">
          <mxGeometry x="310" y="535" width="80" height="55" as="geometry" />
        </mxCell>
        <mxCell id="XyXh-LPCTBvs2xRVVJFw-22" value="&lt;font face=&quot;Times New Roman&quot;&gt;просматривать информацию об откликнувшихся соискателях&lt;/font&gt;" style="ellipse;whiteSpace=wrap;html=1;" vertex="1" parent="1">
          <mxGeometry x="260" y="400" width="110" height="70" as="geometry" />
        </mxCell>
        <mxCell id="XyXh-LPCTBvs2xRVVJFw-23" value="&lt;font face=&quot;Times New Roman&quot;&gt;создавать резюме&lt;/font&gt;" style="ellipse;whiteSpace=wrap;html=1;" vertex="1" parent="1">
          <mxGeometry x="320" y="470" width="60" height="40" as="geometry" />
        </mxCell>
        <mxCell id="XyXh-LPCTBvs2xRVVJFw-24" value="&lt;font face=&quot;Times New Roman&quot;&gt;изменять резюме&lt;/font&gt;" style="ellipse;whiteSpace=wrap;html=1;" vertex="1" parent="1">
          <mxGeometry x="390" y="470" width="60" height="40" as="geometry" />
        </mxCell>
        <mxCell id="XyXh-LPCTBvs2xRVVJFw-25" value="&lt;font face=&quot;Times New Roman&quot;&gt;удалять резюме&lt;/font&gt;" style="ellipse;whiteSpace=wrap;html=1;" vertex="1" parent="1">
          <mxGeometry x="460" y="470" width="60" height="40" as="geometry" />
        </mxCell>
        <mxCell id="XyXh-LPCTBvs2xRVVJFw-27" value="&lt;font face=&quot;Times New Roman&quot;&gt;откликаться на вакнсию&lt;/font&gt;" style="ellipse;whiteSpace=wrap;html=1;" vertex="1" parent="1">
          <mxGeometry x="400" y="520" width="90" height="40" as="geometry" />
        </mxCell>
        <mxCell id="XyXh-LPCTBvs2xRVVJFw-28" value="&lt;font face=&quot;Times New Roman&quot;&gt;отзывать отклик&lt;/font&gt;" style="ellipse;whiteSpace=wrap;html=1;" vertex="1" parent="1">
          <mxGeometry x="500" y="520" width="90" height="30" as="geometry" />
        </mxCell>
        <mxCell id="XyXh-LPCTBvs2xRVVJFw-29" value="&lt;font face=&quot;Times New Roman&quot;&gt;Любой пользователь,&amp;nbsp;&lt;/font&gt;&lt;div&gt;&lt;font face=&quot;Times New Roman&quot;&gt;кроме администратора&lt;/font&gt;&lt;/div&gt;" style="shape=umlActor;verticalLabelPosition=bottom;verticalAlign=top;html=1;outlineConnect=0;" vertex="1" parent="1">
          <mxGeometry x="640" y="620" width="30" height="60" as="geometry" />
        </mxCell>
        <mxCell id="XyXh-LPCTBvs2xRVVJFw-30" value="&lt;font face=&quot;Times New Roman&quot;&gt;изменять своё описание&lt;/font&gt;" style="ellipse;whiteSpace=wrap;html=1;" vertex="1" parent="1">
          <mxGeometry x="-25" y="520" width="85" height="40" as="geometry" />
        </mxCell>
        <mxCell id="XyXh-LPCTBvs2xRVVJFw-31" value="&lt;font face=&quot;Times New Roman&quot;&gt;изменять свой аватар&lt;/font&gt;" style="ellipse;whiteSpace=wrap;html=1;" vertex="1" parent="1">
          <mxGeometry x="-25" y="570" width="85" height="40" as="geometry" />
        </mxCell>
        <mxCell id="XyXh-LPCTBvs2xRVVJFw-32" value="&lt;font face=&quot;Times New Roman&quot;&gt;изменять своё образование&lt;/font&gt;" style="ellipse;whiteSpace=wrap;html=1;" vertex="1" parent="1">
          <mxGeometry x="430" y="560" width="90" height="40" as="geometry" />
        </mxCell>
        <mxCell id="XyXh-LPCTBvs2xRVVJFw-33" value="&lt;font face=&quot;Times New Roman&quot;&gt;изменять свой опыт работы&lt;/font&gt;" style="ellipse;whiteSpace=wrap;html=1;" vertex="1" parent="1">
          <mxGeometry x="530" y="560" width="90" height="40" as="geometry" />
        </mxCell>
        <mxCell id="XyXh-LPCTBvs2xRVVJFw-34" value="&lt;font face=&quot;Times New Roman&quot;&gt;изменять своё имя&lt;/font&gt;" style="ellipse;whiteSpace=wrap;html=1;" vertex="1" parent="1">
          <mxGeometry x="620" y="510" width="90" height="40" as="geometry" />
        </mxCell>
        <mxCell id="XyXh-LPCTBvs2xRVVJFw-35" value="&lt;font face=&quot;Times New Roman&quot;&gt;запрашивать удаление учётной записи&lt;/font&gt;" style="ellipse;whiteSpace=wrap;html=1;" vertex="1" parent="1">
          <mxGeometry x="630" y="555" width="100" height="50" as="geometry" />
        </mxCell>
        <mxCell id="XyXh-LPCTBvs2xRVVJFw-36" value="&lt;font face=&quot;Times New Roman&quot;&gt;удалять свои отзывы&lt;/font&gt;" style="ellipse;whiteSpace=wrap;html=1;" vertex="1" parent="1">
          <mxGeometry x="580" y="460" width="100" height="50" as="geometry" />
        </mxCell>
        <mxCell id="XyXh-LPCTBvs2xRVVJFw-37" value="&lt;font face=&quot;Times New Roman&quot;&gt;Администратор&lt;/font&gt;" style="shape=umlActor;verticalLabelPosition=bottom;verticalAlign=top;html=1;outlineConnect=0;" vertex="1" parent="1">
          <mxGeometry x="827" y="160" width="30" height="60" as="geometry" />
        </mxCell>
        <mxCell id="XyXh-LPCTBvs2xRVVJFw-39" value="&lt;font face=&quot;Times New Roman&quot;&gt;удалять отзывы, на которые поступила жалоба&lt;/font&gt;" style="ellipse;whiteSpace=wrap;html=1;" vertex="1" parent="1">
          <mxGeometry x="630" y="270" width="120" height="60" as="geometry" />
        </mxCell>
        <mxCell id="XyXh-LPCTBvs2xRVVJFw-40" value="&lt;font face=&quot;Times New Roman&quot;&gt;блокировать создание отзывов пользователям&lt;/font&gt;" style="ellipse;whiteSpace=wrap;html=1;" vertex="1" parent="1">
          <mxGeometry x="620" y="200" width="130" height="60" as="geometry" />
        </mxCell>
        <mxCell id="XyXh-LPCTBvs2xRVVJFw-41" value="&lt;font face=&quot;Times New Roman&quot;&gt;удалять учётные записи&lt;/font&gt;" style="ellipse;whiteSpace=wrap;html=1;" vertex="1" parent="1">
          <mxGeometry x="632.5" y="130" width="95" height="60" as="geometry" />
        </mxCell>
        <mxCell id="XyXh-LPCTBvs2xRVVJFw-42" value="&lt;font face=&quot;Times New Roman&quot;&gt;подтверждать компании&lt;/font&gt;" style="ellipse;whiteSpace=wrap;html=1;" vertex="1" parent="1">
          <mxGeometry x="637.5" y="65" width="95" height="60" as="geometry" />
        </mxCell>
      </root>
    </mxGraphModel>
  </diagram>
</mxfile>
